<svg xmlns="http://www.w3.org/2000/svg" xmlns:xlink="http://www.w3.org/1999/xlink" version="1.1" width="375pt" height="375pt" viewBox="0 0 375 375">
<defs>
<clipPath id="clip_0">
<path transform="matrix(.24,0,0,.24,0,0)" d="M0 0H1562.5V1593.75H0Z" fill-rule="evenodd"/>
</clipPath>
<clipPath id="clip_1">
<path transform="matrix(.24,0,0,.24,0,0)" d="M0 0H1562.5V1562.5H0Z" fill-rule="evenodd"/>
</clipPath>
<clipPath id="clip_2">
<path transform="matrix(.24,0,0,.24,0,0)" d="M0 0H1562.5V1562.5H0Z" fill-rule="evenodd"/>
</clipPath>
<clipPath id="clip_3">
<path transform="matrix(.24,0,0,.24,0,0)" d="M0 0H1562.5V1562.5H0Z" fill-rule="evenodd"/>
</clipPath>
<path id="font_4_94" d="M.14013672 .13183594C.14013672 .16015625 .1294759 .18180339 .1081543 .19677735 .08683268 .2117513 .055826826 .21923828 .015136719 .21923828V.3359375C.056152345 .3359375 .087239589 .34309898 .10839844 .35742188 .1295573 .37174479 .14013672 .3922526 .14013672 .4189453V.42285157 .578125C.14013672 .6279297 .15592449 .6630046 .1875 .6833496 .21907552 .70369467 .2745768 .7138672 .3540039 .7138672V.6040039C.32177735 .60302737 .29956056 .59684249 .28735353 .5854492 .27514649 .57405599 .26904298 .5572917 .26904298 .53515627V.38916017C.26708985 .32796226 .2290039 .29182945 .15478516 .28076173V.27490235C.23095703 .26350913 .26904298 .2290039 .26904298 .17138672V.16699219 .020996094C.26904298-.0011393229 .2750651-.017903647 .28710938-.029296875 .29915367-.040690107 .3214518-.046875 .3540039-.047851564V-.15820313C.2745768-.15820313 .21907552-.1480306 .1875-.12768555 .15592449-.10734049 .14013672-.07210287 .14013672-.021972657V.13183594Z"/>
<path id="font_4_96" d="M.25390626-.021972657C.25390626-.05843099 .24723308-.0859375 .23388672-.10449219 .22054036-.123046878 .19848633-.13663738 .16772461-.14526367 .13696289-.15388997 .09440104-.15820313 .040039064-.15820313V-.047851564C.072265628-.04720052 .09448242-.041341146 .10668945-.030273438 .118896488-.019205729 .125-.0021158856 .125 .020996094V.16699219 .17236328C.125 .20035808 .13460286 .22306316 .1538086 .24047852 .17301433 .2578939 .20133464 .2693685 .23876953 .27490235V.28076173C.1648763 .29182945 .12695313 .32796226 .125 .38916017V.53515627C.125 .5579427 .11897787 .5748698 .106933597 .5859375 .09488932 .5970052 .07259115 .60302737 .040039064 .6040039V.7138672C.09440104 .7138672 .13704427 .709554 .16796875 .70092776 .19889324 .69230148 .22094727 .6786296 .23413086 .6599121 .24731446 .64119467 .25390626 .6139323 .25390626 .578125V.42285157 .41796876C.25390626 .390625 .26391603 .3701172 .28393556 .3564453 .30395509 .34277345 .33561198 .3359375 .37890626 .3359375V.21923828C.33821617 .21923828 .3072103 .21256511 .28588868 .19921875 .26456706 .18587239 .25390626 .16341146 .25390626 .13183594V-.021972657Z"/>
</defs>
<g clip-path="url(#clip_0)">
<path transform="matrix(.75,0,0,.75,0,0)" d="M0 0H500V510H0Z" fill="#ffffff"/>
</g>
<g clip-path="url(#clip_1)">
<path transform="matrix(.75,0,0,.75,0,0)" d="M0 0H500V500H0Z" fill="#ffffff"/>
</g>
<g clip-path="url(#clip_2)">
<path transform="matrix(.75,0,0,.75,0,0)" d="M0 0H500V500H0Z"/>
</g>
<g clip-path="url(#clip_3)">
<path transform="matrix(2.0752755,0,0,2.0752755,16.623026,55.270376)" stroke-width="2.1828845" stroke-linecap="butt" stroke-miterlimit="4" stroke-linejoin="miter" fill="none" stroke="#ffffff" d="M33.290513 88.07436C33.290513 83.36441 31.517514 79.764278 27.971516 77.27396 24.425518 74.78364 19.268935 73.53848 12.501762 73.53848V54.130235C19.323073 54.130235 24.49319 52.939214 28.01212 50.557168 31.531048 48.175127 33.290513 44.76447 33.290513 40.325204V39.67556 13.8520359C33.290513 5.5690157 35.916177-.26428724 41.1675-3.647873 46.418825-7.031459 55.649248-8.723251 68.858768-8.723251V9.548111C63.499166 9.7105259 59.804288 10.739136 57.774137 12.633942 55.743989 14.528748 54.728914 17.316824 54.728914 20.998169V45.278779C54.404088 55.456605 48.070016 61.465848 35.726694 63.30652V64.28099C48.39484 66.1758 54.728914 71.91436 54.728914 81.49667V82.22753 106.50814C54.728914 110.18948 55.730455 112.977558 57.733537 114.87236 59.736619 116.76717 63.445028 117.795787 68.858768 117.95819V136.31076C55.649248 136.31076 46.418825 134.61898 41.1675 131.23538 35.916177 127.8518 33.290513 121.991428 33.290513 113.654277V88.07436ZM131.37747 113.654277C131.37747 119.71766 130.26766 124.29227 128.04804 127.3781 125.8284 130.46393 122.16059 132.72415 117.04461 134.1588 111.92863 135.59345 104.85017 136.31076 95.80923 136.31076V117.95819C101.16882 117.84992 104.8637 116.87545 106.89385 115.034778 108.924 113.19411 109.93908 110.3519 109.93908 106.50814V82.22753 81.33426C109.93908 76.678447 111.53613 72.90237 114.73024 70.00602 117.92434 67.10967 122.63429 65.20133 128.86009 64.28099V63.30652C116.57091 61.465848 110.2639 55.456605 109.93908 45.278779V20.998169C109.93908 17.208552 108.93754 14.393407 106.934459 12.552734 104.93137 10.712067 101.22296 9.7105259 95.80923 9.548111V-8.723251C104.85017-8.723251 111.94216-8.005931 117.08521-6.571289 122.228267-5.136647 125.896068-2.8628796 128.08863 .25001527 130.28119 3.362915 131.37747 7.8969218 131.37747 13.8520359V39.67556 40.487619C131.37747 45.035158 133.04219 48.445814 136.37165 50.71958 139.7011 52.99335 144.96596 54.130235 152.16623 54.130235V73.53848C145.39907 73.53848 140.24248 74.6483 136.69647 76.867938 133.15047 79.08756 131.37747 82.823047 131.37747 88.07436V113.654277Z"/>
<use data-text="{" xlink:href="#font_4_94" transform="matrix(345.13905,0,0,-345.13905,37.343355,283.5507)" fill-opacity="0"/>
<use data-text="}" xlink:href="#font_4_96" transform="matrix(345.13905,0,0,-345.13905,201.63452,283.5507)" fill-opacity="0"/>
</g>
</svg>
